<?xml version="1.0" encoding="utf-8"?><!-- Generator: Adobe Illustrator 19.1.0, SVG Export Plug-In . SVG Version: 6.00 Build 0)  --><svg version="1.1" id="Layer_1" xmlns="http://www.w3.org/2000/svg" xmlns:xlink="http://www.w3.org/1999/xlink" x="0px" y="0px"	 viewBox="0 0 589.9 589.9" style="enable-background:new 0 0 589.9 589.9;" xml:space="preserve"><style type="text/css">	.st0{opacity:0.7;fill:#010202;}	.st1{opacity:0.7;}	.st2{fill:#FFFFFF;}</style><g>	<circle class="st0" cx="295" cy="295" r="293.5"/>	<g class="st1">		<path class="st2" d="M295,6.5c38.9,0,76.7,7.6,112.3,22.7c34.3,14.5,65.2,35.3,91.7,61.8c26.5,26.5,47.3,57.3,61.8,91.7			c15,35.6,22.7,73.3,22.7,112.3s-7.6,76.7-22.7,112.3c-14.5,34.3-35.3,65.2-61.8,91.7c-26.5,26.5-57.3,47.3-91.7,61.8			c-35.6,15-73.3,22.7-112.3,22.7s-76.7-7.6-112.3-22.7c-34.3-14.5-65.2-35.3-91.7-61.8c-26.5-26.5-47.3-57.3-61.8-91.7			C14.1,371.7,6.5,333.9,6.5,295s7.6-76.7,22.7-112.3C43.7,148.3,64.5,117.5,91,91c26.5-26.5,57.3-47.3,91.7-61.8			C218.2,14.1,256,6.5,295,6.5 M295,1.5C132.9,1.5,1.5,132.9,1.5,295S132.9,588.4,295,588.4S588.4,457,588.4,295S457,1.5,295,1.5			L295,1.5z"/>	</g></g><g class="st1">	<g>		<polygon transform="rotate(180 296 304)" class="st2" points="215.9,284.2 235.1,265.9 297,330.6 358.9,265.9 378,284.2 297,369 215.9,284.2 		"/>	</g></g></svg>